<svg width="1280" height="720" xmlns="http://www.w3.org/2000/svg" xmlns:xlink="http://www.w3.org/1999/xlink" overflow="hidden"><g><rect x="0" y="0" width="1280" height="720" fill="#FFFFFF"/><g><g><g><path d="M405.5 168.958C421.83 168.958 435.068 155.72 435.068 139.391 435.068 123.061 421.83 109.823 405.5 109.823L404.655 109.823C388.582 110.11 375.753 123.316 375.932 139.391 375.96 155.709 389.182 168.93 405.5 168.958ZM396.275 130.436C398.554 128.093 401.674 126.755 404.942 126.719L405.5 126.719C412.498 126.719 418.172 132.392 418.171 139.391 418.171 146.39 412.497 152.062 405.498 152.062 398.5 152.062 392.827 146.389 392.827 139.39 392.827 139.348 392.828 139.306 392.828 139.264 392.751 135.988 393.99 132.818 396.266 130.461Z" stroke="#283618" stroke-width="8.44792" fill="#283618" transform="matrix(1 0 0 1.00123 548 -48)"/><path d="M276.678 342.842 248.859 315.031 236.913 326.977 276.678 366.741 350.234 293.185 338.288 281.24 276.678 342.842Z" stroke="#283618" stroke-width="8.44792" fill="#283618" transform="matrix(1 0 0 1.00123 548 -48)"/><path d="M397.061 312.556 574.467 312.556 574.467 329.452 397.061 329.452Z" stroke="#283618" stroke-width="8.44792" fill="#283618" transform="matrix(1 0 0 1.00123 548 -48)"/><path d="M276.678 435.794 248.859 407.975 236.913 419.921 276.678 459.685 350.234 386.129 338.288 374.184 276.678 435.794Z" stroke="#283618" stroke-width="8.44792" fill="#283618" transform="matrix(1 0 0 1.00123 548 -48)"/><path d="M397.061 413.948 574.467 413.948 574.467 430.844 397.061 430.844Z" stroke="#283618" stroke-width="8.44792" fill="#283618" transform="matrix(1 0 0 1.00123 548 -48)"/><path d="M397.061 515.306 574.467 515.306 574.467 532.202 397.061 532.202Z" stroke="#283618" stroke-width="8.44792" fill="#283618" transform="matrix(1 0 0 1.00123 548 -48)"/><path d="M397.061 616.681 574.467 616.681 574.467 633.577 397.061 633.577Z" stroke="#283618" stroke-width="8.44792" fill="#283618" transform="matrix(1 0 0 1.00123 548 -48)"/><path d="M253.438 557.562 321.021 557.562 321.021 489.979 253.438 489.979ZM270.333 506.875 304.125 506.875 304.125 540.667 270.333 540.667Z" stroke="#283618" stroke-width="8.44792" fill="#283618" transform="matrix(1 0 0 1.00123 548 -48)"/><path d="M253.438 658.938 321.021 658.938 321.021 591.354 253.438 591.354ZM270.333 608.25 304.125 608.25 304.125 642.042 270.333 642.042Z" stroke="#283618" stroke-width="8.44792" fill="#283618" transform="matrix(1 0 0 1.00123 548 -48)"/><path d="M658.938 160.333C658.938 141.671 643.808 126.541 625.146 126.541L498.427 126.541 498.427 109.646C498.399 86.3284 479.505 67.4339 456.188 67.4059L354.812 67.4059C331.495 67.4339 312.601 86.3284 312.573 109.646L312.573 126.541 185.854 126.541C167.192 126.541 152.062 141.671 152.062 160.333L152.062 709.625C152.062 728.287 167.192 743.417 185.854 743.417L625.146 743.417C643.808 743.417 658.938 728.287 658.938 709.625ZM295.677 143.437 329.469 143.437 329.469 109.646C329.469 95.6482 340.815 84.3018 354.812 84.3018L456.188 84.3018C470.185 84.3018 481.531 95.6482 481.531 109.646L481.531 143.437 515.323 143.437 515.323 211.198 295.677 211.198ZM625.146 726.521 185.854 726.521C176.523 726.521 168.958 718.957 168.958 709.625L168.958 160.333C168.958 151.001 176.523 143.437 185.854 143.437L278.781 143.437 278.781 228.094 532.219 228.094 532.219 143.437 625.146 143.437C634.477 143.437 642.042 151.001 642.042 160.333L642.042 709.625C642.042 718.957 634.477 726.521 625.146 726.521Z" stroke="#283618" stroke-width="8.44792" fill="#283618" transform="matrix(1 0 0 1.00123 548 -48)"/></g></g></g></g></svg>